<svg width="55" height="54" viewBox="0 0 55 54" fill="none" xmlns="http://www.w3.org/2000/svg">
<path d="M44.3749 30.375V21.9375C44.3749 14.1547 38.4383 7.68825 30.8749 6.8445V5.0625C30.8749 3.19612 29.3663 1.6875 27.4999 1.6875C25.6335 1.6875 24.1249 3.19612 24.1249 5.0625V6.8445C16.5615 7.68825 10.6249 14.1547 10.6249 21.9375V30.375C10.6249 34.0976 7.59753 37.125 3.87491 37.125V43.875H51.1249V37.125C47.4023 37.125 44.3749 34.0976 44.3749 30.375ZM27.4999 52.3125C30.642 52.3125 33.2914 50.1592 34.0407 47.25H20.9592C21.7084 50.1592 24.3578 52.3125 27.4999 52.3125V52.3125Z" fill="#00D6F6"/>
</svg>
